:SAMPLES-PER-SECOND 30
:FULLY-SPECIFIED
:DEGREES
629
root  16.6876 39.4513 13.6905 -178.624 -77.1005 174.224
RightUpLeg  0.834519 -9.00793 -2.68789
RightLeg  13.7969 6.95425 2.07734
RightFoot  -10.2379 -0.0537758 -1.61299
RightToes  -5.8209e-011 0 -3.6325e-017
Spine  9.43273 -1.40525 9.26721
Spine1  11.9383 -0.16922 -1.63494
HEad  -0.419795 5.49493 -8.36831
LeftShoulder1  0.237974 2.86766 -31.2979
LeftArm  -4.46491 13.8704 -43.5323
LeftForeArm  32.5685 -4.52502 -8.66572
LeftHand  -0.143428 9.33757 -2.59047
RightShoulder  -0.540427 -5.10562 26.9268
RightArm  5.73273 -6.47872 33.6424
RightForeArm  -2.38306 -0.0753929 3.79153
RightHand  -0.343977 2.167 -5.47608
LeftUpLeg  -12.3153 2.47222 1.61589
LeftLeg  19.585 -0.0974014 0.288911
LeftFoot  -8.03726 0.229257 -6.31885
LeftToes  -8.31281e-010 4.41007e-011 3.74621e-011
630
root  17.3551 39.5017 13.8941 -177.534 -77.3436 173.67
RightUpLeg  -0.613786 -8.99909 -2.63286
RightLeg  13.1327 6.62409 2.03044
RightFoot  -8.97053 -0.0287132 -1.55242
RightToes  -5.8209e-011 0 -3.6325e-017
Spine  8.95795 -1.65327 9.43341
Spine1  11.9291 -0.405065 -1.58772
HEad  -0.620359 6.40494 -8.41681
LeftShoulder1  0.234134 2.87467 -31.1519
LeftArm  -4.20018 13.3848 -43.3291
LeftForeArm  31.2143 -4.76376 -8.82926
LeftHand  -0.0865034 8.6691 -1.13098
RightShoulder  -0.46761 -4.91925 26.1837
RightArm  7.08057 -9.41682 31.2332
RightForeArm  -1.90037 0.904428 3.99457
RightHand  -0.338003 1.78295 -5.64032
LeftUpLeg  -10.672 1.79185 1.78335
LeftLeg  23.0551 1.05053 0.809985
LeftFoot  -9.07385 0.18047 -6.31763
LeftToes  -8.31281e-010 4.41007e-011 3.74621e-011
631
root  17.9992 39.516 14.1009 -178.012 -77.588 174.681
RightUpLeg  -2.02105 -8.81284 -2.25101
RightLeg  12.5461 6.17936 2.00005
RightFoot  -7.76781 -0.00944087 -1.3819
RightToes  -5.8209e-011 0 -3.6325e-017
Spine  8.10732 -1.93107 9.67058
Spine1  12.4701 -0.694236 -1.49876
HEad  -0.660779 7.63566 -8.12509
LeftShoulder1  0.286161 2.72112 -30.4383
LeftArm  -4.4704 12.641 -43.8837
LeftForeArm  29.9935 -5.37345 -8.70009
LeftHand  -0.00868513 8.3467 1.2259
RightShoulder  -0.509571 -5.05514 26.0303
RightArm  7.76476 -10.7994 29.2865
RightForeArm  -1.20997 1.51298 4.00138
RightHand  -0.324283 2.44482 -5.00376
LeftUpLeg  -8.53187 2.10582 2.32007
LeftLeg  25.5788 1.90286 1.32676
LeftFoot  -10.2357 0.115998 -5.72296
LeftToes  -8.31281e-010 4.41007e-011 3.74621e-011
632
root  18.677 39.5533 14.3143 -177.324 -78.3137 174.6
RightUpLeg  -3.39339 -8.92069 -2.25186
RightLeg  11.71 5.59561 2.16213
RightFoot  -6.35959 0.0100005 -1.2203
RightToes  -5.8209e-011 0 -3.6325e-017
Spine  7.80471 -2.43557 8.87306
Spine1  12.0438 -1.50988 -0.693231
HEad  -0.535268 8.86218 -7.86114
LeftShoulder1  0.265816 2.77567 -30.4061
LeftArm  -3.85043 11.6258 -43.5777
LeftForeArm  28.8471 -6.60375 -8.96704
LeftHand  -0.0011829 9.82651 1.32655
RightShoulder  -0.468376 -4.96524 25.1883
RightArm  7.63769 -11.8061 28.5053
RightForeArm  -1.36031 2.20548 3.82869
RightHand  -0.2888 2.47013 -4.47778
LeftUpLeg  -6.30087 2.25916 2.56976
LeftLeg  27.075 3.45334 2.2444
LeftFoot  -10.6819 0.0955639 -5.45016
LeftToes  -8.31281e-010 4.41007e-011 3.74621e-011
633
root  19.3404 39.5848 14.4937 -177.252 -78.8137 174.651
RightUpLeg  -4.12186 -8.77246 -2.13775
RightLeg  10.6608 5.00068 2.02621
RightFoot  -4.97099 0.0146754 -0.877078
RightToes  -5.8209e-011 0 -3.6325e-017
Spine  8.01397 -2.7743 7.46966
Spine1  11.4816 -2.27009 0.616742
HEad  -0.376624 10.0966 -7.13813
LeftShoulder1  0.301593 2.67291 -30.1715
LeftArm  -3.62908 10.2462 -43.6245
LeftForeArm  28.0081 -7.622 -8.76496
LeftHand  -0.00402729 8.30987 1.54205
RightShoulder  -0.415586 -4.82284 24.5825
RightArm  6.53462 -12.2688 28.3972
RightForeArm  -3.43907 2.83178 3.441
RightHand  -0.390854 2.27984 -6.15125
LeftUpLeg  -3.18879 3.30606 3.16502
LeftLeg  27.5724 3.91758 2.55098
LeftFoot  -11.081 0.0770136 -5.12714
LeftToes  -8.31281e-010 4.41007e-011 3.74621e-011
634
root  20.0257 39.5641 14.7307 -177.917 -79.3977 175.525
RightUpLeg  -5.17447 -8.65619 -1.98677
RightLeg  9.98702 4.27054 1.98838
RightFoot  -3.79621 -0.00161859 -0.359537
RightToes  -5.8209e-011 0 -3.6325e-017
Spine  8.36645 -3.06789 6.5969
Spine1  10.6695 -2.88429 1.72532
HEad  0.0638016 10.696 -6.82666
LeftShoulder1  0.34646 2.5503 -30.2725
LeftArm  -1.25329 8.58404 -43.098
LeftForeArm  25.5831 -9.99821 -8.81842
LeftHand  0.00168235 8.1685 1.84598
RightShoulder  -0.398744 -4.7803 24.2846
RightArm  4.96915 -12.169 28.6381
RightForeArm  -3.84276 3.55356 2.88313
RightHand  -0.341155 3.54595 -4.66472
LeftUpLeg  -0.191826 4.5001 3.96888
LeftLeg  27.577 4.058 2.63101
LeftFoot  -11.7742 0.0494583 -5.67308
LeftToes  -8.31281e-010 4.41007e-011 3.74621e-011
